<?xml version="1.0" encoding="UTF-8"?>
<svg width="152px" height="48px" viewBox="0 0 152 48" version="1.1" xmlns="http://www.w3.org/2000/svg" xmlns:xlink="http://www.w3.org/1999/xlink">
    <!-- Generator: Sketch 63.1 (92452) - https://sketch.com -->
    <title>Combined Shape</title>
    <desc>Created with Sketch.</desc>
    <g id="Delay" stroke="none" stroke-width="1" fill="none" fill-rule="evenodd">
        <g id="2_Vision_Map" transform="translate(-16.000000, -20.000000)" fill="#000000" fill-rule="nonzero">
            <g id="Header">
                <path d="M69.0432776,41 C71.4586689,41 72.9822234,42.2514045 72.9822234,44.7921348 C72.9822234,45.2092697 72.9450635,45.6264045 72.8707438,46.0814607 L72.8707438,46.0814607 L72.4991451,48.5842697 C72.4248254,48.9255618 72.1275465,49.1530899 71.7931077,49.1910112 L71.7931077,49.1910112 L67.8913218,49.5702247 C67.4825633,49.6081461 67.2967639,49.380618 67.3710837,49.0393258 L67.3710837,49.0393258 L67.817002,46.1573034 C67.8913218,45.7401685 67.7055225,45.5505618 67.2967639,45.5505618 L67.2967639,45.5505618 L65.067172,45.5505618 C64.6584135,45.5505618 64.4726141,45.7401685 64.3982944,46.1573034 L64.3982944,46.1573034 L63.5807774,51.3904494 C63.5064576,51.8075843 63.6550971,51.997191 64.0638556,51.997191 L64.0638556,51.997191 L67.7055225,51.997191 C70.1209137,51.997191 71.6444682,53.2485955 71.6444682,55.7893258 C71.6444682,56.2064607 71.6073084,56.6235955 71.5329886,57.0786517 L71.5329886,57.0786517 L70.6411518,62.9185393 C70.0837539,66.369382 68.8946382,68 65.2529713,68 L65.2529713,68 L60.1992296,68 C57.7838383,68 56.2602838,66.7865169 56.2602838,64.2078652 C56.2602838,63.7907303 56.2974437,63.3735955 56.3717634,62.9185393 L56.3717634,62.9185393 L56.8176818,59.9606742 C56.8920015,59.619382 57.1892805,59.3918539 57.5237192,59.3539326 L57.5237192,59.3539326 L61.4255051,58.9747191 C61.7971038,58.9367978 61.9829031,59.1643258 61.9457433,59.505618 L61.9457433,59.505618 L61.4255051,62.8426966 C61.3511854,63.2598315 61.5369847,63.4494382 61.9457433,63.4494382 L61.9457433,63.4494382 L64.7327332,63.4494382 C65.1414917,63.4494382 65.327291,63.2598315 65.4016108,62.8426966 L65.4016108,62.8426966 L66.3011197,57.1055279 C66.3525466,56.7224944 66.1656176,56.5477528 65.7732094,56.5477528 L65.7732094,56.5477528 L62.1315426,56.5477528 C59.7161513,56.5477528 58.2297567,55.3342697 58.2297567,52.755618 C58.2297567,52.3764045 58.2669166,51.9213483 58.3412363,51.4662921 L58.3412363,51.4662921 L59.1587533,46.0814607 C59.7161513,42.630618 60.905267,41 64.5469339,41 L64.5469339,41 Z M100.034606,41 C102.449997,41 103.973551,42.2514045 103.973551,44.7921348 C103.973551,45.2092697 103.936392,45.6264045 103.862072,46.0814607 L103.862072,46.0814607 L103.416153,48.9634831 C103.378994,49.3047753 103.081715,49.5323034 102.747276,49.5702247 L102.747276,49.5702247 L98.80833,49.9494382 C98.4367314,49.9873596 98.2509321,49.7598315 98.2880919,49.4185393 L98.2880919,49.4185393 L98.80833,46.1573034 C98.8826498,45.7401685 98.6968505,45.5505618 98.2880919,45.5505618 L98.2880919,45.5505618 L96.0213401,45.5505618 C95.6125816,45.5505618 95.4267823,45.7401685 95.3524625,46.1573034 L95.3524625,46.1573034 L92.7512719,62.8426966 C92.6769522,63.2598315 92.8627515,63.4494382 93.2715101,63.4494382 L93.2715101,63.4494382 L95.5382619,63.4494382 C95.9470204,63.4494382 96.1328197,63.2598315 96.2071394,62.8426966 L96.2071394,62.8426966 L96.7273776,59.619382 C96.7645374,59.2780899 97.0618164,59.0505618 97.3962552,59.0126404 L97.3962552,59.0126404 L101.335201,58.633427 C101.7068,58.5955056 101.892599,58.8230337 101.818279,59.1643258 L101.818279,59.1643258 L101.260881,62.9185393 C100.703483,66.369382 99.5143675,68 95.8727007,68 L95.8727007,68 L91.339197,68 C88.9238058,68 87.4002513,66.7865169 87.4002513,64.2078652 C87.4002513,63.7907303 87.4374111,63.3735955 87.5117309,62.9185393 L87.5117309,62.9185393 L90.1129215,46.0814607 C90.6703195,42.630618 91.8594352,41 95.501102,41 L95.501102,41 Z M147.562074,41 C149.977465,41 151.50102,42.2514045 151.50102,44.7921348 C151.50102,45.2092697 151.46386,45.6264045 151.38954,46.0814607 L151.38954,46.0814607 L151.017941,48.5842697 C150.943622,48.9255618 150.646343,49.1530899 150.311904,49.1910112 L150.311904,49.1910112 L146.410118,49.5702247 C146.00136,49.6081461 145.81556,49.380618 145.88988,49.0393258 L145.88988,49.0393258 L146.335798,46.1573034 C146.410118,45.7401685 146.224319,45.5505618 145.81556,45.5505618 L145.81556,45.5505618 L143.585968,45.5505618 C143.17721,45.5505618 142.99141,45.7401685 142.917091,46.1573034 L142.917091,46.1573034 L142.099574,51.3904494 C142.025254,51.8075843 142.173893,51.997191 142.582652,51.997191 L142.582652,51.997191 L146.224319,51.997191 C148.63971,51.997191 150.163264,53.2485955 150.163264,55.7893258 C150.163264,56.2064607 150.126105,56.6235955 150.051785,57.0786517 L150.051785,57.0786517 L149.159948,62.9185393 C148.60255,66.369382 147.413434,68 143.771768,68 L143.771768,68 L138.718026,68 C136.302635,68 134.77908,66.7865169 134.77908,64.2078652 C134.77908,63.7907303 134.81624,63.3735955 134.89056,62.9185393 L134.89056,62.9185393 L135.336478,59.9606742 C135.410798,59.619382 135.708077,59.3918539 136.042515,59.3539326 L136.042515,59.3539326 L139.944301,58.9747191 C140.3159,58.9367978 140.501699,59.1643258 140.46454,59.505618 L140.46454,59.505618 L139.944301,62.8426966 C139.869982,63.2598315 140.055781,63.4494382 140.46454,63.4494382 L140.46454,63.4494382 L143.251529,63.4494382 C143.660288,63.4494382 143.846087,63.2598315 143.920407,62.8426966 L143.920407,62.8426966 L144.819916,57.1055279 C144.871343,56.7224944 144.684414,56.5477528 144.292006,56.5477528 L144.292006,56.5477528 L140.650339,56.5477528 C138.234948,56.5477528 136.748553,55.3342697 136.748553,52.755618 C136.748553,52.3764045 136.785713,51.9213483 136.860033,51.4662921 L136.860033,51.4662921 L137.67755,46.0814607 C138.234948,42.630618 139.424063,41 143.06573,41 L143.06573,41 Z M164.061054,41 C166.476446,41 168,42.2514045 168,44.7921348 C168,45.2092697 167.96284,45.6264045 167.88852,46.0814607 L167.88852,46.0814607 L167.516922,48.5842697 C167.442602,48.9255618 167.145323,49.1530899 166.810884,49.1910112 L166.810884,49.1910112 L162.909098,49.5702247 C162.50034,49.6081461 162.314541,49.380618 162.38886,49.0393258 L162.38886,49.0393258 L162.834779,46.1573034 C162.909098,45.7401685 162.723299,45.5505618 162.314541,45.5505618 L162.314541,45.5505618 L160.084949,45.5505618 C159.67619,45.5505618 159.490391,45.7401685 159.416071,46.1573034 L159.416071,46.1573034 L158.598554,51.3904494 C158.524234,51.8075843 158.672874,51.997191 159.081632,51.997191 L159.081632,51.997191 L162.723299,51.997191 C165.13869,51.997191 166.662245,53.2485955 166.662245,55.7893258 C166.662245,56.2064607 166.625085,56.6235955 166.550765,57.0786517 L166.550765,57.0786517 L165.658928,62.9185393 C165.10153,66.369382 163.912415,68 160.270748,68 L160.270748,68 L155.217006,68 C152.801615,68 151.27806,66.7865169 151.27806,64.2078652 C151.27806,63.7907303 151.31522,63.3735955 151.38954,62.9185393 L151.38954,62.9185393 L151.835458,59.9606742 C151.909778,59.619382 152.207057,59.3918539 152.541496,59.3539326 L152.541496,59.3539326 L156.443282,58.9747191 C156.81488,58.9367978 157.00068,59.1643258 156.96352,59.505618 L156.96352,59.505618 L156.443282,62.8426966 C156.368962,63.2598315 156.554761,63.4494382 156.96352,63.4494382 L156.96352,63.4494382 L159.75051,63.4494382 C160.159268,63.4494382 160.345068,63.2598315 160.419387,62.8426966 L160.419387,62.8426966 L161.318896,57.1055279 C161.370323,56.7224944 161.183394,56.5477528 160.790986,56.5477528 L160.790986,56.5477528 L157.149319,56.5477528 C154.733928,56.5477528 153.247533,55.3342697 153.247533,52.755618 C153.247533,52.3764045 153.284693,51.9213483 153.359013,51.4662921 L153.359013,51.4662921 L154.17653,46.0814607 C154.733928,42.630618 155.923044,41 159.56471,41 L159.56471,41 Z M31.9205718,41.2275281 C32.2921704,41.2275281 32.4408099,41.4550562 32.3664902,41.7963483 L32.3664902,41.7963483 L31.4374935,45.247191 C31.3260139,45.5505618 31.028735,45.7780899 30.6942962,45.7780899 L30.6942962,45.7780899 L24.5629184,45.7780899 L23.559602,52.3764045 L28.4275444,52.3764045 C28.7991431,52.3764045 28.9477825,52.6039326 28.8363029,52.9452247 L28.8363029,52.9452247 L27.9073063,56.3960674 C27.8329865,56.6994382 27.5357076,56.9269663 27.2012688,56.9269663 L27.2012688,56.9269663 L22.8535645,56.9269663 L21.2556903,67.2036517 C21.1813706,67.5828652 20.9955713,67.7724719 20.6239726,67.7724719 L20.6239726,67.7724719 L16.4992275,67.7724719 C16.1276288,67.7724719 15.9418295,67.5828652 16.0161492,67.2036517 L16.0161492,67.2036517 L19.955095,41.7963483 C20.0294147,41.4171348 20.2152141,41.2275281 20.5868127,41.2275281 L20.5868127,41.2275281 Z M39.055266,41.2275281 C39.4268646,41.2275281 39.612664,41.4171348 39.5383442,41.7963483 L39.5383442,41.7963483 L35.5993985,67.2036517 C35.5250787,67.5828652 35.3392794,67.7724719 34.9676808,67.7724719 L34.9676808,67.7724719 L30.8429357,67.7724719 C30.471337,67.7724719 30.2855377,67.5828652 30.3598574,67.2036517 L30.3598574,67.2036517 L34.2988032,41.7963483 C34.3731229,41.4171348 34.5589222,41.2275281 34.9305209,41.2275281 L34.9305209,41.2275281 Z M52.5814571,41.2275281 C54.9968484,41.2275281 56.5204029,42.4789326 56.5204029,45.0196629 C56.5204029,45.4367978 56.483243,45.8539326 56.4089233,46.3089888 L56.4089233,46.3089888 L54.9596885,55.7514045 C54.5880899,58.2542135 54.2164912,59.5435393 52.0983789,60.2640449 L52.0983789,60.2640449 L52.061219,60.5674157 L53.6962531,67.0898876 C53.8077327,67.4311798 53.6590932,67.7724719 53.2503347,67.7724719 L53.2503347,67.7724719 L49.2370692,67.7724719 C48.9397903,67.7724719 48.6425113,67.6207865 48.6053515,67.2794944 L48.6053515,67.2794944 L47.1932766,61.3258427 L45.3724432,61.3258427 L44.4806064,67.2036517 C44.4062867,67.5828652 44.2204873,67.7724719 43.8488887,67.7724719 L43.8488887,67.7724719 L39.7241436,67.7724719 C39.3525449,67.7724719 39.1667456,67.5828652 39.2410653,67.2036517 L39.2410653,67.2036517 L43.1800111,41.7963483 C43.2543308,41.4171348 43.4401301,41.2275281 43.8117288,41.2275281 L43.8117288,41.2275281 Z M88.7008466,41.2275281 C89.0724452,41.2275281 89.2210847,41.4550562 89.146765,41.7963483 L89.146765,41.7963483 L88.2177683,45.247191 C88.1062887,45.5505618 87.8090098,45.7780899 87.474571,45.7780899 L87.474571,45.7780899 L84.0930232,45.7780899 L80.7857952,67.2036517 C80.7114754,67.5828652 80.5256761,67.7724719 80.1540775,67.7724719 L80.1540775,67.7724719 L76.0293324,67.7724719 C75.6577337,67.7724719 75.4719344,67.5828652 75.5462541,67.2036517 L75.5462541,67.2036517 L78.8534822,45.7780899 L74.9516963,45.7780899 C74.5800976,45.7780899 74.4314581,45.5505618 74.5429377,45.2092697 L74.5429377,45.2092697 L75.4719344,41.758427 C75.5462541,41.4550562 75.843533,41.2275281 76.1779718,41.2275281 L76.1779718,41.2275281 Z M112.111562,41.2275281 C112.483161,41.2275281 112.66896,41.4171348 112.59464,41.7963483 L112.59464,41.7963483 L109.287412,63.2219101 L115.753229,63.2219101 C116.124827,63.2219101 116.273467,63.4494382 116.161987,63.7907303 L116.161987,63.7907303 L115.232991,67.241573 C115.121511,67.5449438 114.861392,67.7724719 114.526953,67.7724719 L114.526953,67.7724719 L103.899232,67.7724719 C103.527633,67.7724719 103.341834,67.5828652 103.416153,67.2036517 L103.416153,67.2036517 L107.355099,41.7963483 C107.429419,41.4171348 107.615218,41.2275281 107.986817,41.2275281 L107.986817,41.2275281 Z M130.802974,41 C133.218366,41 134.74192,42.2514045 134.74192,44.7921348 C134.74192,45.2092697 134.70476,45.6264045 134.630441,46.0814607 L134.630441,46.0814607 L131.360372,67.2036517 C131.286053,67.5828652 131.100253,67.7724719 130.728655,67.7724719 L130.728655,67.7724719 L126.60391,67.7724719 C126.232311,67.7724719 126.046512,67.5828652 126.120831,67.2036517 L126.120831,67.2036517 L127.012668,61.3258427 L123.371001,61.3258427 L122.479165,67.2036517 C122.404845,67.5828652 122.219045,67.7724719 121.847447,67.7724719 L121.847447,67.7724719 L117.908501,67.7724719 C117.536902,67.7724719 117.351103,67.5828652 117.425423,67.2036517 L117.425423,67.2036517 L120.695491,46.0814607 C121.252889,42.630618 122.442005,41 126.083671,41 L126.083671,41 Z M50.6491441,45.7780899 L47.7878344,45.7780899 L46.0784806,56.7752809 L48.9397903,56.7752809 C49.3485488,56.7752809 49.571508,56.5856742 49.6458277,56.1685393 L49.6458277,56.1685393 L51.1693822,46.3848315 C51.2437019,45.9676966 51.0579026,45.7780899 50.6491441,45.7780899 L50.6491441,45.7780899 Z M128.870661,45.5505618 L126.41811,45.5505618 C126.009352,45.5505618 125.823552,45.7401685 125.749233,46.1573034 L125.749233,46.1573034 L124.077039,56.7752809 L127.718706,56.7752809 L129.3909,46.1573034 C129.465219,45.7401685 129.27942,45.5505618 128.870661,45.5505618 L128.870661,45.5505618 Z M142.574074,20 C142.805121,20 142.984825,20.1574398 142.999087,20.3765665 L142.996457,20.4614436 L142.996457,32.7526218 C142.996457,32.96703 142.842426,33.1482929 142.62564,33.1859265 L142.541583,33.1930907 L113.148023,33.1930907 C111.090257,33.1930907 109.433214,34.8081431 109.433214,36.7902529 C109.433214,36.8951265 109.346571,37 109.216607,37 C109.126354,37 109.036101,36.9417369 109.008524,36.8494871 L109,36.7902529 L109,24.4885873 C109,22.0842866 110.9623,20.1154379 113.41751,20.004895 L113.635388,20 L142.574074,20 Z M80.6874494,23.8312195 C81.4435223,23.8312195 82.1827935,23.8809756 82.8716599,24.0302439 C83.5269231,24.1463415 84.0645749,24.2790244 84.4846154,24.4282927 L84.5182186,24.4282927 L84.5182186,33.0858537 C84.5182186,33.7160976 84.4174089,34.28 84.1821862,34.777561 C83.9637652,35.2585366 83.6445344,35.6731707 83.2748988,36.004878 C82.8716599,36.3365854 82.4180162,36.5853659 81.897166,36.7512195 C81.3763158,36.9170732 80.7882591,37 80.1665992,37 C79.6793522,37 79.2593117,36.9668293 78.8896761,36.9502439 C78.5200405,36.9004878 78.1840081,36.8341463 77.8983806,36.7512195 C77.612753,36.6682927 77.3271255,36.5853659 77.1087045,36.4692683 C76.8902834,36.3531707 76.6550607,36.2204878 76.4366397,36.0712195 L76.4030364,36.0380488 L77.4447368,34.3297561 L77.4783401,34.3629268 C77.8143725,34.5785366 78.2176113,34.777561 78.6376518,34.8604878 C79.0408907,34.9765854 79.5449393,35.0263415 80.1161943,35.0263415 C80.6874494,35.0263415 81.191498,34.8604878 81.5611336,34.4956098 C81.9643725,34.1639024 82.1491903,33.6497561 82.1491903,33.0360976 L82.1491903,32.1736585 C81.8635628,32.3892683 81.5275304,32.5882927 81.191498,32.737561 C80.8218623,32.9034146 80.3346154,32.9863415 79.7129555,32.9863415 C79.0576923,32.9863415 78.4696356,32.8702439 77.965587,32.6546341 C77.4615385,32.4390244 77.0078947,32.1239024 76.6718623,31.7258537 C76.3022267,31.3278049 76.0165992,30.88 75.848583,30.3658537 C75.6469636,29.835122 75.5629555,29.2546341 75.5629555,28.6409756 C75.5629555,27.977561 75.6805668,27.3639024 75.9325911,26.7668293 C76.1510121,26.1863415 76.5206478,25.6721951 76.9574899,25.2243902 C77.4111336,24.8097561 77.9487854,24.444878 78.5704453,24.1960976 C79.1921053,23.9473171 79.9313765,23.8312195 80.6874494,23.8312195 Z M41.4724696,23.7980488 C42.0941296,23.7980488 42.7157895,23.8478049 43.2870445,23.9970732 C43.8246964,24.1131707 44.2783401,24.2458537 44.6143725,24.4117073 L44.7823887,24.4946341 L44.7823887,32.5385366 C44.7823887,33.1853659 44.6983806,33.7658537 44.5639676,34.2965854 C44.3959514,34.8604878 44.1439271,35.3082927 43.7742915,35.6897561 C43.4046559,36.0878049 42.9510121,36.3531707 42.4133603,36.5521951 C41.8757085,36.7512195 41.2204453,36.8673171 40.4643725,36.8673171 C40.044332,36.8673171 39.6410931,36.8341463 39.3050607,36.7512195 C38.9690283,36.7014634 38.6497976,36.5853659 38.36417,36.4692683 C38.1121457,36.3531707 37.8769231,36.2536585 37.6921053,36.137561 C37.4904858,36.0214634 37.3560729,35.9219512 37.2384615,35.822439 L37.0368421,35.6565854 L37.8601215,34.595122 L38.0785425,34.7609756 C38.2465587,34.8936585 38.5657895,35.0760976 38.9522267,35.2419512 C39.3218623,35.4078049 39.8595142,35.4907317 40.5147773,35.4907317 C41.0860324,35.4907317 41.5564777,35.4078049 41.9597166,35.275122 C42.3293522,35.142439 42.6149798,34.9434146 42.8334008,34.6614634 C43.0518219,34.4126829 43.2030364,34.097561 43.2870445,33.7658537 C43.3710526,33.4009756 43.4214575,32.9863415 43.4214575,32.5717073 L43.4214575,32.0741463 C43.3374494,32.1570732 43.2198381,32.24 43.1022267,32.3229268 C42.8165992,32.5385366 42.4805668,32.737561 42.0773279,32.9034146 C41.6572874,33.0692683 41.1364372,33.1853659 40.5819838,33.1853659 C39.909919,33.1853659 39.2882591,33.0692683 38.7674089,32.8204878 C38.2633603,32.5717073 37.8097166,32.24 37.4736842,31.8087805 C37.1376518,31.3941463 36.8856275,30.88 36.7176113,30.3326829 C36.5495951,29.7687805 36.465587,29.1882927 36.465587,28.5414634 C36.465587,27.8117073 36.6,27.1814634 36.8688259,26.5843902 C37.1208502,26.0039024 37.4904858,25.4897561 37.9441296,25.075122 C38.3977733,24.6604878 38.9354251,24.3453659 39.5234818,24.1297561 C40.1115385,23.9141463 40.8004049,23.7980488 41.4724696,23.7980488 Z M99.5220648,21.1443902 L99.5220648,24.0302439 L101.924696,24.0302439 L101.924696,25.9209756 L99.5220648,25.9209756 L99.5220648,29.7521951 C99.5220648,30.2497561 99.6060729,30.6478049 99.7740891,30.8965854 C99.9421053,31.1619512 100.19413,31.2946341 100.563765,31.2946341 C100.933401,31.2946341 101.219028,31.244878 101.420648,31.1619512 C101.605466,31.0458537 101.807085,30.9297561 102.008704,30.7970732 L102.008704,30.7970732 L102.042308,30.7639024 L103,32.1902439 L102.966397,32.2234146 C102.512753,32.5882927 102.059109,32.8370732 101.639069,33.0029268 C101.202227,33.1687805 100.698178,33.2517073 100.160526,33.2517073 C99.6228745,33.2517073 99.1524291,33.1687805 98.7491903,33.0029268 C98.3795547,32.8702439 98.0267206,32.6546341 97.8082996,32.3395122 C97.5898785,32.057561 97.4218623,31.6926829 97.304251,31.2780488 C97.2202429,30.8634146 97.1698381,30.4156098 97.1698381,29.9180488 L97.1698381,29.9180488 L97.1698381,21.1443902 L99.5220648,21.1443902 Z M58.1564777,21.2604878 L58.1564777,24.0468293 L60.9791498,24.0468293 L60.9791498,25.3736585 L58.1564777,25.3736585 L58.1564777,29.9512195 C58.1564777,30.4487805 58.2236842,30.8136585 58.2740891,31.0956098 C58.3244939,31.3443902 58.408502,31.5434146 58.5261134,31.6595122 C58.6437247,31.7590244 58.761336,31.8419512 58.895749,31.875122 C59.0637652,31.8917073 59.2317814,31.924878 59.4334008,31.924878 C59.7022267,31.924878 59.9374494,31.875122 60.1054656,31.7921951 C60.2734818,31.6926829 60.4751012,31.5102439 60.6767206,31.2946341 L60.6767206,31.2946341 L60.8279352,31.0790244 L61.7352227,31.9414634 L61.6008097,32.1404878 C61.3151822,32.5053659 60.9959514,32.7541463 60.659919,32.9531707 C60.3238866,33.1521951 59.8366397,33.235122 59.2989879,33.235122 C58.9629555,33.235122 58.6269231,33.1853659 58.3076923,33.102439 C57.9548583,32.9863415 57.6692308,32.8204878 57.4508097,32.5717073 C57.2659919,32.3229268 57.0643725,31.9912195 56.9467611,31.5931707 C56.8291498,31.2282927 56.7787449,30.7141463 56.7787449,30.1336585 L56.7787449,30.1336585 L56.7787449,21.2604878 L58.1564777,21.2604878 Z M73.7819838,24.0302439 L73.7819838,32.9863415 L71.4297571,32.9863415 L71.4297571,24.0302439 L73.7819838,24.0302439 Z M88.9706478,20.2653659 L88.9706478,24.8595122 C89.2058704,24.6439024 89.5082996,24.4117073 89.9115385,24.1960976 C90.3651822,23.9473171 90.9364372,23.8312195 91.6421053,23.8312195 C92.1965587,23.8312195 92.7174089,23.9473171 93.1374494,24.1131707 C93.5910931,24.2790244 93.9607287,24.5278049 94.2463563,24.8595122 C94.5487854,25.1746341 94.7840081,25.5892683 94.9184211,26.0370732 C95.052834,26.484878 95.1368421,26.982439 95.1368421,27.5463415 L95.1368421,27.5463415 L95.1368421,32.9863415 L92.7846154,32.9863415 L92.7846154,27.5629268 C92.7846154,27.0156098 92.6502024,26.6009756 92.3309717,26.2858537 C92.0285425,25.9873171 91.6253036,25.8380488 91.1548583,25.8214634 C90.8356275,25.8214634 90.55,25.8712195 90.2979757,25.9873171 C90.0459514,26.12 89.8275304,26.2692683 89.6259109,26.484878 C89.4242915,26.6839024 89.2898785,26.9326829 89.1722672,27.2146341 C89.0546559,27.4965854 89.004251,27.7785366 89.004251,28.1102439 L89.004251,28.1102439 L89.004251,32.9697561 L86.6520243,32.9697561 L86.6520243,20.2653659 L88.9706478,20.2653659 Z M28.0143725,20.2653659 L28.0143725,21.6253659 L21.4449393,21.6253659 L21.4449393,25.6887805 L26.7374494,25.6887805 L26.7374494,27.0487805 L21.4449393,27.0487805 L21.4449393,32.9863415 L20,32.9863415 L20,20.2653659 L28.0143725,20.2653659 Z M30.8874494,20.2653659 L30.8874494,32.9863415 L29.5097166,32.9863415 L29.5097166,20.2653659 L30.8874494,20.2653659 Z M34.6510121,24.0302439 L34.6510121,32.9863415 L33.2732794,32.9863415 L33.2732794,24.0302439 L34.6510121,24.0302439 Z M48.3107287,20.2321951 L48.3107287,25.075122 C48.4787449,24.8595122 48.7139676,24.6604878 48.9659919,24.4946341 C49.2852227,24.3121951 49.6212551,24.1297561 49.9908907,23.9970732 C50.3605263,23.8478049 50.81417,23.7980488 51.3182186,23.7980488 C51.9734818,23.7980488 52.5111336,23.8809756 52.9647773,24.08 C53.4352227,24.2790244 53.8048583,24.5609756 54.0904858,24.9258537 C54.3761134,25.257561 54.5945344,25.7053659 54.6953441,26.12 C54.8129555,26.6009756 54.8633603,27.1317073 54.8633603,27.7121951 L54.8633603,27.7121951 L54.8633603,32.92 L53.4856275,32.92 L53.4856275,27.977561 C53.4856275,27.3970732 53.4352227,26.8995122 53.3176113,26.5014634 C53.2336032,26.1365854 53.0991903,25.8546341 52.8975709,25.6390244 C52.712753,25.44 52.4775304,25.3073171 52.2255061,25.2243902 C51.9398785,25.1414634 51.6038462,25.0917073 51.2342105,25.0917073 C50.7469636,25.0917073 50.2933198,25.2078049 49.9572874,25.4068293 C49.5876518,25.5892683 49.2684211,25.8380488 49.05,26.1531707 C48.8315789,26.484878 48.6299595,26.8165854 48.5123482,27.2146341 C48.3947368,27.6126829 48.344332,27.9941463 48.344332,28.3590244 L48.344332,28.3590244 L48.344332,32.9697561 L46.9665992,32.9697561 L46.9665992,20.2321951 L48.3107287,20.2321951 Z M69.2287449,23.8643902 C69.3967611,23.897561 69.5983806,23.9473171 69.7663968,23.9970732 L69.8,23.9970732 L69.8,24.0302439 L69.312753,26.1863415 L69.312753,26.2029268 C69.1783401,26.1531707 68.9935223,26.0868293 68.8591093,26.0702439 C68.6910931,26.0370732 68.5062753,26.0370732 68.2878543,26.0370732 C67.9686235,26.0370732 67.6997976,26.0868293 67.41417,26.1697561 C67.1285425,26.2858537 66.9101215,26.4185366 66.708502,26.5843902 C66.5068826,26.7834146 66.3388664,26.9990244 66.2212551,27.2478049 C66.1036437,27.4965854 66.0532389,27.8117073 66.0532389,28.1102439 L66.0532389,32.9365854 L63.7010121,32.9365854 L63.7010121,23.9804878 L65.9356275,23.9804878 L65.9860324,25.0419512 C66.0700405,24.9258537 66.1876518,24.8263415 66.3220648,24.7102439 C66.490081,24.577561 66.6580972,24.395122 66.8933198,24.2956098 C67.1117409,24.1629268 67.3805668,24.0468293 67.6493927,23.9639024 C67.9182186,23.8809756 68.2710526,23.8312195 68.6406883,23.8312195 C68.8591093,23.8312195 69.0607287,23.8312195 69.2287449,23.8643902 Z M41.3716599,25.124878 C40.884413,25.124878 40.4307692,25.2078049 40.0107287,25.3404878 C39.5906883,25.4731707 39.2210526,25.7053659 38.8850202,26.0039024 C38.5657895,26.2858537 38.3137652,26.6507317 38.1289474,27.0985366 C37.9273279,27.5131707 37.8433198,28.0273171 37.8433198,28.5746341 C37.8433198,29.022439 37.8937247,29.4702439 38.011336,29.8517073 C38.1289474,30.2497561 38.2633603,30.5980488 38.498583,30.88 C38.717004,31.1619512 39.0026316,31.4107317 39.3554656,31.5765854 C39.7082996,31.742439 40.1115385,31.8253659 40.6323887,31.8253659 C41.1196356,31.8253659 41.5396761,31.742439 41.8757085,31.5434146 C42.2117409,31.3443902 42.5309717,31.1287805 42.7493927,30.88 C42.9678138,30.6312195 43.1526316,30.3492683 43.2534413,30.0673171 C43.3710526,29.7853659 43.4214575,29.5697561 43.4214575,29.4039024 L43.3878543,25.4234146 C43.2702429,25.3902439 43.13583,25.3404878 42.9846154,25.3073171 C42.782996,25.257561 42.5645749,25.2243902 42.2789474,25.1746341 C42.0269231,25.1414634 41.7076923,25.124878 41.3716599,25.124878 Z M126.140496,21.0967742 L124.488868,24.3623728 L120.795715,24.8860358 L123.468106,27.4279498 L122.83724,31.01719 L126.140496,29.3225806 L129.443752,31.01719 L128.812886,27.4279498 L131.485276,24.8860358 L127.792124,24.3623728 L126.140496,21.0967742 Z M80.7714575,25.8546341 C80.3178138,25.8546341 79.9145749,25.937561 79.5785425,26.0702439 C79.2425101,26.2029268 78.9568826,26.4019512 78.7048583,26.6507317 C78.4864372,26.8995122 78.2848178,27.1814634 78.1672065,27.5131707 C78.0495951,27.844878 77.9991903,28.1765854 77.9991903,28.5414634 C77.9991903,29.204878 78.1672065,29.7687805 78.5032389,30.2497561 C78.8392713,30.697561 79.3769231,30.9131707 80.1497976,30.9131707 C80.8218623,30.9131707 81.3427126,30.7804878 81.6787449,30.4985366 C82.0147773,30.2165854 82.1827935,29.7687805 82.1827935,29.155122 L82.1827935,26.0370732 C82.0147773,25.9873171 81.8467611,25.9209756 81.6787449,25.9043902 C81.4771255,25.8712195 81.191498,25.8546341 80.7714575,25.8546341 Z M72.5890688,20 C73.3451417,20 73.9668016,20.6136585 73.9668016,21.36 C73.9668016,22.1063415 73.3451417,22.72 72.5890688,22.72 C71.8161943,22.72 71.2281377,22.1063415 71.211336,21.36 C71.211336,20.6136585 71.832996,20 72.5890688,20 Z M33.9453441,20.6965854 C34.4493927,20.6965854 34.8862348,21.1278049 34.8862348,21.5921951 C34.8862348,22.0731707 34.4493927,22.4878049 33.9453441,22.4878049 C33.4580972,22.4878049 33.0380567,22.0731707 33.0380567,21.5921951 C33.0380567,21.1112195 33.4412955,20.6965854 33.9453441,20.6965854 Z" id="Combined-Shape"></path>
            </g>
        </g>
    </g>
</svg>